<svg xmlns="http://www.w3.org/2000/svg" viewBox="0 0 40 40" fill="none">
  <!-- Solid dark circle background -->
  <circle cx="20" cy="20" r="19" fill="#2d1f19"/>
  <!-- Bright crescent moon -->
  <path d="M22 8C16.5 8 12 12.5 12 18s4.5 10 10 10c2 0 3.8-.6 5.4-1.5C25.2 28 22.2 29 19 29c-6.1 0-11-4.9-11-11S12.9 7 19 7c3.2 0 6.2 1 8.4 2.5C25.8 8.6 24 8 22 8z" fill="#ffd166"/>
  <!-- Bright star cluster -->
  <polygon points="30,12 31.2,15.2 34.5,15.5 32,17.6 32.8,21 30,19 27.2,21 28,17.6 25.5,15.5 28.8,15.2" fill="#ffd166"/>
  <circle cx="26" cy="10" r="1.2" fill="#ffd166"/>
  <circle cx="34" cy="20" r="1" fill="#ffd166" opacity="0.8"/>
  <!-- Zzz sleep indicator -->
  <text x="28" y="30" font-family="sans-serif" font-weight="900" font-size="6" fill="#ffd166" opacity="0.7">z</text>
  <text x="32" y="27" font-family="sans-serif" font-weight="900" font-size="5" fill="#ffd166" opacity="0.5">z</text>
</svg>
