<svg xmlns="http://www.w3.org/2000/svg" viewBox="0 0 40 40" fill="none">
  <!-- Bold crescent moon -->
  <path d="M26 4C17.2 4 10 11.2 10 20s7.2 16 16 16c3.2 0 6.2-1 8.6-2.6C31.8 35.6 27.2 37 22 37 11.5 37 3 28.5 3 18S11.5-1 22-1c5.2 0 9.8 1.4 12.6 3.6C32.2 5 29.2 4 26 4z" fill="#ffd166"/>
  <!-- Open book in the moon -->
  <path d="M13 23 L20 19.5 L27 23 L27 30 L20 26.5 L13 30Z" fill="#2d1f19"/>
  <path d="M13 23 L20 19.5 L20 26.5 L13 30Z" fill="#2d1f19"/>
  <path d="M20 19.5 L27 23 L27 30 L20 26.5Z" fill="#3d2b1f"/>
  <line x1="20" y1="19.5" x2="20" y2="26.5" stroke="#ffd166" stroke-width="0.7"/>
  <!-- Page lines -->
  <line x1="15" y1="24.5" x2="18.5" y2="22.8" stroke="#ffd166" stroke-width="0.8" opacity="0.6"/>
  <line x1="15.5" y1="26.5" x2="18.5" y2="25" stroke="#ffd166" stroke-width="0.8" opacity="0.6"/>
  <line x1="21.5" y1="22.8" x2="25" y2="24.5" stroke="#ffd166" stroke-width="0.8" opacity="0.6"/>
  <line x1="21.5" y1="25" x2="24.5" y2="26.5" stroke="#ffd166" stroke-width="0.8" opacity="0.6"/>
  <!-- Bold stars -->
  <circle cx="30" cy="9" r="2.5" fill="#ffd166"/>
  <circle cx="35" cy="17" r="1.8" fill="#ffd166"/>
  <circle cx="32" cy="26" r="1.3" fill="#ffd166" opacity="0.8"/>
  <circle cx="26" cy="5" r="1.5" fill="#ffd166" opacity="0.9"/>
</svg>
