<svg xmlns="http://www.w3.org/2000/svg" viewBox="0 0 40 40" fill="none">
  <!-- Open book shape -->
  <path d="M6 30 L6 12 Q6 8 10 8 L18 8 Q20 8 20 10 L20 28 Q18 26 14 26 L10 26 Q6 26 6 30Z" fill="#7eb8c9" stroke="#5a9bb0" stroke-width="1.2"/>
  <path d="M34 30 L34 12 Q34 8 30 8 L22 8 Q20 8 20 10 L20 28 Q22 26 26 26 L30 26 Q34 26 34 30Z" fill="#f4a6b0" stroke="#e08a95" stroke-width="1.2"/>
  <!-- Spine -->
  <line x1="20" y1="8" x2="20" y2="28" stroke="#d4a574" stroke-width="1.5"/>
  <!-- Sparkle above book -->
  <circle cx="20" cy="5" r="2" fill="#ffd166"/>
  <circle cx="14" cy="3" r="1.2" fill="#ffd166" opacity="0.6"/>
  <circle cx="26" cy="3" r="1.2" fill="#ffd166" opacity="0.6"/>
  <!-- Text lines on left page -->
  <line x1="9" y1="14" x2="17" y2="14" stroke="#fff" stroke-width="0.8" opacity="0.5"/>
  <line x1="9" y1="17" x2="16" y2="17" stroke="#fff" stroke-width="0.8" opacity="0.5"/>
  <line x1="9" y1="20" x2="15" y2="20" stroke="#fff" stroke-width="0.8" opacity="0.5"/>
  <!-- Text lines on right page -->
  <line x1="23" y1="14" x2="31" y2="14" stroke="#fff" stroke-width="0.8" opacity="0.5"/>
  <line x1="23" y1="17" x2="30" y2="17" stroke="#fff" stroke-width="0.8" opacity="0.5"/>
  <line x1="23" y1="20" x2="29" y2="20" stroke="#fff" stroke-width="0.8" opacity="0.5"/>
</svg>
