<svg xmlns="http://www.w3.org/2000/svg" viewBox="0 0 40 40" fill="none">
  <!-- Gradient circle background -->
  <defs>
    <linearGradient id="bg" x1="0" y1="0" x2="40" y2="40">
      <stop offset="0%" stop-color="#1a1145"/>
      <stop offset="100%" stop-color="#2d1f19"/>
    </linearGradient>
  </defs>
  <circle cx="20" cy="20" r="19" fill="url(#bg)"/>
  <!-- Thick bright crescent -->
  <path d="M21 7C14.4 7 9 12.4 9 19s5.4 12 12 12c2.4 0 4.6-.7 6.5-1.9-2.3 2-5.2 3.2-8.5 3.2-7.2 0-13-5.8-13-13S11.8 6.3 19 6.3c3.3 0 6.2 1.2 8.5 3.2C25.6 7.7 23.4 7 21 7z" fill="#ffd166"/>
  <!-- Open book at center-bottom -->
  <path d="M14 26 L20 23 L26 26 L26 32 L20 29 L14 32Z" fill="#ff926b"/>
  <line x1="20" y1="23" x2="20" y2="29" stroke="#ffd166" stroke-width="1"/>
  <!-- Stars scattered -->
  <circle cx="30" cy="10" r="2.2" fill="#fff"/>
  <circle cx="34" cy="18" r="1.5" fill="#fff" opacity="0.9"/>
  <circle cx="28" cy="16" r="1" fill="#fff" opacity="0.7"/>
  <circle cx="32" cy="25" r="0.8" fill="#fff" opacity="0.5"/>
</svg>
